<?xml version="1.0" encoding="utf-8"?>
<!-- Generator: Adobe Illustrator 26.5.0, SVG Export Plug-In . SVG Version: 6.00 Build 0)  -->
<svg version="1.1" id="Layer_1" xmlns="http://www.w3.org/2000/svg" xmlns:xlink="http://www.w3.org/1999/xlink" x="0px" y="0px"
	 viewBox="0 0 64 64" style="enable-background:new 0 0 64 64;" xml:space="preserve">
<style type="text/css">
	.st0{fill:#E0E1E0;}
</style>
<g>
	<path class="st0" d="M52.79,12.93c-3.82-1.75-7.92-3.05-12.21-3.79c-0.08-0.01-0.16,0.02-0.2,0.09c-0.53,0.94-1.11,2.16-1.52,3.12
		c-4.61-0.69-9.2-0.69-13.71,0c-0.41-0.98-1.01-2.19-1.54-3.12c-0.04-0.07-0.12-0.1-0.2-0.09c-4.28,0.74-8.38,2.03-12.21,3.79
		c-0.03,0.01-0.06,0.04-0.08,0.07C3.34,24.62,1.21,35.95,2.25,47.14c0,0.05,0.04,0.11,0.08,0.14c5.13,3.77,10.1,6.06,14.98,7.57
		c0.08,0.02,0.16,0,0.21-0.07c1.15-1.58,2.18-3.24,3.06-4.98c0.05-0.1,0-0.22-0.1-0.26c-1.63-0.62-3.19-1.37-4.68-2.23
		c-0.12-0.07-0.13-0.24-0.02-0.32c0.31-0.24,0.63-0.48,0.93-0.73c0.05-0.05,0.13-0.05,0.19-0.03c9.82,4.48,20.45,4.48,30.15,0
		c0.06-0.03,0.14-0.02,0.2,0.02c0.3,0.25,0.61,0.5,0.93,0.73c0.11,0.08,0.1,0.25-0.02,0.32c-1.49,0.87-3.05,1.61-4.68,2.23
		c-0.11,0.04-0.15,0.16-0.1,0.27c0.9,1.74,1.93,3.41,3.06,4.98c0.05,0.07,0.13,0.1,0.21,0.07c4.9-1.52,9.87-3.8,15-7.57
		c0.04-0.03,0.07-0.08,0.08-0.14c1.25-12.94-2.1-24.18-8.87-34.14C52.85,12.97,52.82,12.94,52.79,12.93z M22.05,40.33
		c-2.96,0-5.39-2.71-5.39-6.05s2.39-6.05,5.39-6.05c3.03,0,5.44,2.74,5.39,6.05C27.44,37.61,25.05,40.33,22.05,40.33z M41.98,40.33
		c-2.96,0-5.39-2.71-5.39-6.05s2.39-6.05,5.39-6.05c3.03,0,5.44,2.74,5.39,6.05C47.38,37.61,45.01,40.33,41.98,40.33z"/>
</g>
</svg>
