<?xml version="1.0" encoding="utf-8"?>
<!-- Generator: Adobe Illustrator 26.5.0, SVG Export Plug-In . SVG Version: 6.00 Build 0)  -->
<svg version="1.1" id="Layer_1" xmlns="http://www.w3.org/2000/svg" xmlns:xlink="http://www.w3.org/1999/xlink" x="0px" y="0px"
	 viewBox="0 0 64 64" style="enable-background:new 0 0 64 64;" xml:space="preserve">
<style type="text/css">
	.st0{fill:#E0E0E0;}
</style>
<g>
	<path class="st0" d="M31.71,0.9C15.52,0.9,2.26,13.5,1,29.51l16.52,6.89c1.4-0.97,3.09-1.53,4.91-1.53c0.16,0,0.33,0,0.49,0.01
		l7.35-10.75v-0.15c0-6.47,5.21-11.73,11.62-11.73S53.5,17.52,53.5,23.98s-5.21,11.73-11.62,11.73c-0.09,0-0.18,0-0.26,0
		l-10.48,7.54c0.01,0.14,0.01,0.28,0.01,0.42c0,4.86-3.91,8.81-8.72,8.81c-4.22,0-7.75-3.04-8.55-7.07L2.06,40.48
		C5.72,53.53,17.6,63.1,31.71,63.1c17.02,0,30.82-13.93,30.82-31.1C62.53,14.82,48.73,0.9,31.71,0.9z M20.31,48.09l-3.79-1.58
		c0.67,1.41,1.83,2.59,3.37,3.24c3.33,1.4,7.17-0.19,8.56-3.56c0.67-1.63,0.68-3.42,0.01-5.06c-0.67-1.63-1.92-2.9-3.53-3.58
		c-1.6-0.67-3.32-0.65-4.83-0.07l3.91,1.63c2.46,1.03,3.62,3.88,2.59,6.36C25.59,47.95,22.77,49.12,20.31,48.09z M49.63,23.98
		c0-4.31-3.47-7.82-7.74-7.82c-4.27,0-7.75,3.51-7.75,7.82s3.47,7.81,7.75,7.81C46.15,31.8,49.63,28.29,49.63,23.98z M36.08,23.97
		c0-3.24,2.61-5.87,5.82-5.87c3.21,0,5.82,2.63,5.82,5.87s-2.61,5.87-5.82,5.87C38.68,29.84,36.08,27.21,36.08,23.97z"/>
</g>
</svg>
