<?xml version="1.0" encoding="utf-8"?>
<!-- Generator: Adobe Illustrator 26.5.0, SVG Export Plug-In . SVG Version: 6.00 Build 0)  -->
<svg version="1.1" id="Layer_1" xmlns="http://www.w3.org/2000/svg" xmlns:xlink="http://www.w3.org/1999/xlink" x="0px" y="0px"
	 viewBox="0 0 64 64" style="enable-background:new 0 0 64 64;" xml:space="preserve">
<style type="text/css">
	.st0{fill:#E0E1E0;}
</style>
<g>
	<path class="st0" d="M55.4,20c0,0.5,0,1,0,1.6c0,15.9-12.1,34.3-34.3,34.3v0c-6.5,0-13-1.9-18.5-5.4c1,0.1,1.9,0.2,2.9,0.2
		c5.4,0,10.7-1.8,15-5.2c-5.2-0.1-9.7-3.5-11.3-8.4c1.8,0.3,3.7,0.3,5.4-0.2C9,35.7,5,30.8,5,25.1v-0.2c1.7,0.9,3.6,1.5,5.5,1.5
		c-5.3-3.5-6.9-10.6-3.7-16.1c6.1,7.5,15.1,12.1,24.8,12.6c-1-4.2,0.4-8.6,3.5-11.5c4.9-4.6,12.5-4.3,17,0.5
		c2.7-0.5,5.3-1.5,7.7-2.9c-0.9,2.8-2.8,5.2-5.3,6.7c2.4-0.3,4.7-0.9,6.9-1.9C59.7,16.2,57.7,18.3,55.4,20L55.4,20z"/>
</g>
</svg>
