<?xml version="1.0" encoding="utf-8"?>
<!-- Generator: Adobe Illustrator 27.2.0, SVG Export Plug-In . SVG Version: 6.00 Build 0)  -->
<svg version="1.1" id="Layer_1" xmlns="http://www.w3.org/2000/svg" xmlns:xlink="http://www.w3.org/1999/xlink" x="0px" y="0px"
	 viewBox="0 0 64 64" style="enable-background:new 0 0 64 64;" xml:space="preserve">
<style type="text/css">
	.st0{fill:#E0E1E0;}
</style>
<path class="st0" d="M60.7,18.1c-0.6-3.1-3.2-5.4-6.3-6.1c-4.6-1-13.2-1.7-22.5-1.7c-9.3,0-18,0.7-22.7,1.7
	c-3.1,0.7-5.8,2.8-6.3,6.1c-0.6,3.5-1.1,8.5-1.1,14.8s0.6,11.3,1.3,14.8c0.6,3.1,3.2,5.4,6.3,6.1c4.9,1,13.4,1.7,22.7,1.7
	s17.8-0.7,22.7-1.7c3.1-0.7,5.8-2.8,6.3-6.1c0.6-3.5,1.3-8.6,1.4-14.8C62.1,26.5,61.4,21.6,60.7,18.1z M24.2,42.7V23l17.2,9.9
	L24.2,42.7z"/>
</svg>
